<svg id="Layer_1" enable-background="new 0 0 66 66" height="512" viewBox="0 0 66 66" width="512" xmlns="http://www.w3.org/2000/svg"><g><g><path d="m39.29 57.63h-6.87c-.53 0-.96.43-.96.96s.43.96.96.96h6.87c.53 0 .96-.43.96-.96s-.42-.96-.96-.96z"/><path d="m32.43 8.45h6.87c.53 0 .96-.43.96-.96s-.43-.96-.96-.96h-6.87c-.53 0-.96.43-.96.96s.42.96.96.96z"/><path d="m61.98 17.88h-5v-10.36c0-2.47-2-4.47-4.46-4.47h-33.3c-2.47 0-4.48 2.01-4.48 4.48v26.98h-1.38c-.46 0-.85.32-.94.77l-.39 1.93c-.6.18-1.17.4-1.73.67l-1.57-1.15c-.38-.28-.9-.24-1.23.08l-3.56 3.39c-.34.32-.39.84-.14 1.23l1.08 1.63c-.1.18-.2.38-.3.59-.16.35-.32.72-.45 1.1l-1.94.3c-.46.07-.8.46-.81.93l-.12 4.91c-.01.47.32.88.78.97l1.92.38c.17.58.39 1.16.66 1.72l-1.17 1.58c-.28.38-.24.9.08 1.24l3.39 3.54c.32.34.84.39 1.23.13l1.64-1.1c.54.3 1.11.54 1.68.75l.29 2.03c.07.47.47.82.95.82h39.8c2.47 0 4.47-2.01 4.47-4.48v-12.88h5c1.53 0 2.77-1.24 2.77-2.77v-22.16c0-1.53-1.24-2.78-2.77-2.78zm-42.76-12.91h33.29c1.4 0 2.54 1.14 2.54 2.55v2.47h-38.38v-2.46c0-1.41 1.14-2.56 2.55-2.56zm-5.95 54.25c-.05-.37-.32-.68-.69-.79-.81-.23-1.6-.58-2.35-1.04-.32-.2-.73-.19-1.04.02l-1.46.99-2.27-2.37 1.04-1.41c.22-.3.25-.7.07-1.03-.41-.78-.72-1.59-.92-2.41-.09-.37-.38-.65-.75-.72l-1.71-.34.08-3.29 1.74-.27c.37-.06.67-.32.78-.68.14-.5.33-.97.54-1.42.17-.37.34-.67.5-.94.2-.32.19-.73-.01-1.04l-.96-1.45 2.39-2.28 1.4 1.03c.3.22.7.25 1.03.07.7-.38 1.45-.68 2.32-.92l.11-.03c.35-.1.62-.38.69-.74l.35-1.73h1.55.01s0 0 .01 0h1.72l.26 1.79c.05.37.32.68.68.78.83.24 1.62.59 2.36 1.04.32.19.72.19 1.04-.02l1.46-.98 2.26 2.37-1.04 1.4c-.22.3-.25.71-.07 1.04.4.74.72 1.55.93 2.41.09.36.38.64.74.71l1.7.34-.08 3.3-1.74.27c-.37.06-.67.32-.77.68-.25.84-.6 1.63-1.04 2.35-.2.32-.19.72.02 1.04l.97 1.46-2.39 2.28-1.4-1.03c-.3-.22-.7-.25-1.03-.07-.77.42-1.58.73-2.41.94-.36.09-.64.38-.72.74l-.35 1.74h-3.28zm39.23 1.81h-33.72l.16-.78c.59-.18 1.17-.4 1.73-.67l1.25.92c.02.02.06.04.1.06l.22.17c.38.28.9.25 1.24-.08l3.55-3.39c.34-.32.39-.84.14-1.23l-.01-.02h27.9v2.46c-.01 1.41-1.15 2.56-2.56 2.56zm2.55-6.95h-28.81c.22-.45.43-.9.6-1.38l1.94-.3c.46-.07.8-.46.81-.93l.12-4.91c.01-.47-.31-.88-.77-.97l-1.92-.39c-.18-.6-.4-1.18-.67-1.72l1.16-1.57c.28-.38.25-.9-.08-1.24l-3.38-3.54c-.32-.34-.84-.39-1.23-.13l-1.63 1.1c-.54-.29-1.1-.54-1.68-.74l-.3-2.02c-.07-.47-.47-.82-.95-.82h-1.6v-22.6h38.39v5.97h-22.84c-1.53 0-2.77 1.24-2.77 2.77v22.16c0 1.53 1.24 2.77 2.77 2.77h3.46v2.88c0 .74.42 1.4 1.1 1.7.25.11.51.17.77.17.44 0 .88-.16 1.23-.47l4.84-4.28h11.44zm7.78-11.26c0 .47-.38.85-.85.85h-18.74c-.23 0-.46.09-.64.24l-5.02 4.44v-3.71c0-.53-.43-.96-.96-.96h-4.42c-.47 0-.85-.38-.85-.85v-22.17c0-.47.38-.85.85-.85h29.77c.47 0 .85.38.85.85v22.16z"/><path d="m43.5 34.79-2.85-2.85 2.85-2.85c.38-.38.38-.98 0-1.36s-.98-.38-1.36 0l-3.53 3.53c-.18.18-.28.43-.28.68 0 .26.1.5.28.68l3.53 3.53c.19.19.43.28.68.28s.49-.09.68-.28c.38-.37.38-.98 0-1.36z"/><path d="m52.04 27.73c-.38-.38-.98-.38-1.36 0s-.38.99 0 1.36l2.85 2.85-2.85 2.85c-.38.38-.38.98 0 1.36.19.19.44.28.68.28.25 0 .49-.09.68-.28l3.53-3.53c.18-.18.28-.43.28-.68 0-.26-.1-.5-.28-.68z"/><path d="m49.75 22.39c-.51-.14-1.04.16-1.18.67l-4.79 17.24c-.14.51.16 1.04.67 1.18.09.02.17.04.26.04.42 0 .81-.28.93-.7l4.79-17.24c.13-.51-.17-1.04-.68-1.19z"/><path d="m22.04 48.73c0-3.62-2.94-6.56-6.56-6.56-3.61 0-6.55 2.94-6.55 6.56s2.94 6.56 6.55 6.56c3.62 0 6.56-2.94 6.56-6.56zm-6.56 4.64c-2.55 0-4.63-2.08-4.63-4.64s2.08-4.64 4.63-4.64c2.56 0 4.64 2.08 4.64 4.64s-2.08 4.64-4.64 4.64z"/></g></g></svg>