<svg id="Layer_1" height="512" viewBox="0 0 516 518.8" width="512" xmlns="http://www.w3.org/2000/svg"><g id="Layer_50"><g><path d="m513.1 149.6-57.8-34c-1.9-1.1-4.2-1.1-6.1 0l-49.8 29.2-79.2-46.5v-56.6-1.7c0-2.2-1.1-4.1-3-5.2l-57.7-34c-1.9-1.1-4.2-1.1-6.1 0l-57.8 34c-1.8 1.1-3 3.1-3 5.2v1.8 56.5l-77.6 45.6-48.2-28.3c-1.9-1.1-4.1-1.1-6 0l-57.8 34c-1.9 1-3 3-3 5.1v66c0 2.2 1.2 4.2 3.1 5.2l57.8 32 .3.2h.3l.5.2h3.6l.5-.2h.3l.3-.2 55.1-30.5 18.7 11v45.7l-31 18.3-42.7-25.1c-1.9-1.1-4.1-1.1-6 0l-57.8 33.9c-1.9 1.1-3 3.1-3 5.2v65.9c0 2.2 1.2 4.2 3.1 5.3l57.8 32h.3l.3.2h4.6l.3-.2h.3l54.8-30.3 71.1 41.8v49.8c0 2.2 1.2 4.1 3.1 5.2l57.8 32h.3l.4.2h4.5l.3-.2h.3l57.8-32c1.9-1.1 3.1-3 3.1-5.2v-37.6l77.7-45.7 51.4 28.4.4.2h.3l.4.2h3.7l.4-.2h.3l.3-.2 57.8-32c1.9-1 3.1-3 3.1-5.2v-65.9c0-2.1-1.1-4.1-2.9-5.2l-57.8-34c-1.9-1.1-4.2-1.1-6.1 0l-38.8 22.8-38.1-22.4v-39.5l25.7-15.1 51.3 28.4.4.2h.3l.4.2h3.7l.4-.2h.3l.3-.2 57.8-32c1.9-1 3.1-3 3.1-5.2v-66c0-2.1-1.1-4.1-2.9-5.1zm-60.9-21.9 47.5 27.9-47.5 27.9-47.4-27.9zm-161.4-46.7c-2.9-1.7-6.6-.7-8.3 2.2s-.7 6.6 2.1 8.3l21.1 12.3-43.4 24v-48.7l45.8-26.9v39zm-5.4 345.7-29 17-19.3-11.3-28.2-16.6 44.6-26.2 2.9-1.7 2.9 1.7 44.6 26.2zm-132.9-190.6c.1-.7.1-1.5 0-2.2v-25.3l40.1 23.6v60.7c0 2.2 1.2 4.2 3.1 5.3l54.7 30.2v45.8l-97.9-54.2zm58.1 6.6 6.1-10.3-7.7-4.5 47.4-27.9 47.5 27.9-12.9 7.5 6.1 10.4 11.1-6.6v50.2l-45.8 25.3v-7.2h-12v7.2l-45.8-25.3v-50.2zm51.8 131.5v-45.8l54.7-30.2c1.9-1.1 3.1-3.1 3.1-5.3v-60.7l40.1-23.6v111.4zm53.3-153.3-56.2-33.1c-1.9-1.1-4.2-1.1-6.1 0l-56.3 33.1-38.8-22.8 94.4-55.4h.1l3.6-2.1 3.7 2.2 94.4 55.4zm-59.3-207.9 47.5 27.9-47.5 27.8-47.5-27.8zm-51.8 39.2 45.8 26.9v48.6l-43.3-24 17-10c3-1.3 4.4-4.9 3.1-7.9s-4.9-4.4-7.9-3.1c-.4.2-.8.4-1.2.7l-13.5 7.8zm-140.8 75.5 47.5 27.9-47.5 27.9-47.5-27.9zm-51.8 39.3 45.8 26.9v48.6l-45.8-25.4zm57.8 75.5v-48.6l45.8-26.9v42.8l-15.3-9c-2.9-1.7-6.6-.7-8.2 2.1-1.7 2.9-.7 6.6 2.1 8.3l15.6 9.1zm57.8-25.6v-62.2c0-1.3-.5-2.5-1.2-3.6l68.7-40.3.6.3 44.8 24.8-97.1 57c-1.8 1.1-2.9 3.1-2.9 5.2v26.3zm-63.8 72.5 42.8 25.1 4.7 2.8-47.5 27.9-47.5-27.9zm-51.8 39.3 45.8 26.9v48.6l-45.8-25.4zm57.8 75.5v-48.6l45.8-26.9v43.2l-21.5-12.6c-2.8-1.7-6.4-.8-8.1 2 0 0-.1.1-.1.1-1.7 2.8-.7 6.5 2.1 8.2l21.5 12.6zm57.8-25.3v-62.5c0-2.1-1.1-4.1-3-5.2l-3.3-1.9 19.2-11.2v25.5c0 2.2 1.2 4.1 3.1 5.2l97.7 54.1-45.7 26.8c-1.8 1.1-3 3.1-3 5.2v1.8.4zm77 48.3 45.8 26.9v48.6l-45.8-25.4zm57.8 75.5v-48.6l45.8-26.9v50.1zm166.1-130c-1.7-2.9-5.3-3.9-8.2-2.2l-19.9 11.7v-47.1l45.8 26.9v48.6l-36.2-20.1 16.4-9.6c2.8-1.7 3.8-5.4 2.1-8.2zm75.5 12.6-45.8 25.3v-48.6l45.8-26.9zm-51.8-89.4 47.5 27.9-47.5 27.8-47.4-27.8zm-53.6 17.6-7.2 4.2c-1.8 1.1-3 3.1-3 5.2v66.3l-68.3 40.1v-12.6-1.8c0-2.1-1.1-4.1-3-5.2l-45.7-26.8 97.7-54.1c1.9-1 3.1-3 3.1-5.2v-25.5zm-29.2-120.6-97.1-57 44.8-24.8.6-.3 71.2 41.8c-.3.7-.5 1.4-.5 2.1v66c0 .2.1.3.1.5l-16.2 9.5v-32.6c0-2.1-1.1-4.1-2.9-5.2zm58 12.4c-1.6-2.8-5.2-3.8-8.1-2.2 0 0-.1.1-.1.1l-18.8 11v-47.2l45.8 26.9v48.6l-36.2-20.1 15.3-8.9c2.8-1.7 3.8-5.4 2.1-8.2zm30.8 37.2v-48.6l45.8-26.9v50.1z"/><path d="m235.2 290.1h3.1v5.3h12v-5.3h6.1v5.3h12v-5.7c9.2-1.7 15.8-9.8 15.8-19.1 0-5.1-1.9-9.9-5.4-13.6 7.4-7.8 7.1-20.1-.7-27.6-2.7-2.6-6.1-4.3-9.7-5v-5.7h-12v5.3h-6.1v-5.3h-12v5.3h-3.1c-3.3 0-6 2.7-6 6v54.1c0 3.3 2.7 6 6 6zm29.5-12h-23.5v-15.1h23.5c4.2.5 7.2 4.3 6.7 8.4-.4 3.5-3.2 6.3-6.7 6.7zm7.5-34.6c.1 4.1-3.2 7.4-7.3 7.5-.1 0-.1 0-.2 0h-23.5v-15h23.5c4.1 0 7.5 3.4 7.5 7.5z"/></g></g></svg>